<svg xmlns="http://www.w3.org/2000/svg" width="960" height="160" viewBox="0 0 960 160" fill="none">
  <defs>
    <linearGradient id="bDbg" x1="0%" y1="0%" x2="100%" y2="0%">
      <stop offset="0%" stop-color="#0F172A"/>
      <stop offset="100%" stop-color="#1E293B"/>
    </linearGradient>
    <linearGradient id="bDsun" x1="0%" y1="0%" x2="100%" y2="100%">
      <stop offset="0%" stop-color="#FBBF24"/>
      <stop offset="100%" stop-color="#F59E0B"/>
    </linearGradient>
  </defs>

  <rect width="960" height="160" rx="12" fill="url(#bDbg)"/>
  <rect x="0" y="0" width="6" height="160" rx="3" fill="#FBBF24"/>

  <circle cx="70" cy="55" r="18" fill="url(#bDsun)"/>
  <g stroke="#FBBF24" stroke-width="1.8" stroke-linecap="round" opacity="0.85">
    <line x1="70" y1="28" x2="70" y2="22"/>
    <line x1="70" y1="82" x2="70" y2="88"/>
    <line x1="43" y1="55" x2="37" y2="55"/>
    <line x1="97" y1="55" x2="103" y2="55"/>
  </g>
  <rect x="42" y="90" width="56" height="28" rx="2" fill="#1E3A5F"/>
  <line x1="56" y1="90" x2="56" y2="118" stroke="#60A5FA" stroke-width="0.7" opacity="0.45"/>
  <line x1="70" y1="90" x2="70" y2="118" stroke="#60A5FA" stroke-width="0.7" opacity="0.45"/>
  <line x1="84" y1="90" x2="84" y2="118" stroke="#60A5FA" stroke-width="0.7" opacity="0.45"/>
  <line x1="42" y1="99" x2="98" y2="99" stroke="#60A5FA" stroke-width="0.7" opacity="0.45"/>
  <line x1="42" y1="109" x2="98" y2="109" stroke="#60A5FA" stroke-width="0.7" opacity="0.45"/>

  <text x="130" y="70" font-family="Inter, system-ui, -apple-system, sans-serif" font-size="32" font-weight="700" fill="#F8FAFC">Solaris</text>
  <text x="130" y="100" font-family="Inter, system-ui, -apple-system, sans-serif" font-size="14" fill="#94A3B8">Africa's first computational underwriting engine for C&amp;I Solar+BESS</text>
  <text x="130" y="122" font-family="Inter, system-ui, -apple-system, sans-serif" font-size="12" fill="#64748B">10 markets · 8 sectors · 25-year cashflows · IFC DSCR · Conservative tax logic</text>

  <g transform="translate(680, 50)">
    <rect x="0" y="0" width="90" height="28" rx="14" fill="#064E3B"/>
    <text x="45" y="19" text-anchor="middle" font-family="Inter, system-ui, sans-serif" font-size="11" font-weight="600" fill="#6EE7B7">≤500ms</text>
    <rect x="100" y="0" width="90" height="28" rx="14" fill="#1E3A5F"/>
    <text x="145" y="19" text-anchor="middle" font-family="Inter, system-ui, sans-serif" font-size="11" font-weight="600" fill="#93C5FD">1.30× DSCR</text>
    <rect x="0" y="40" width="90" height="28" rx="14" fill="#78350F"/>
    <text x="45" y="59" text-anchor="middle" font-family="Inter, system-ui, sans-serif" font-size="11" font-weight="600" fill="#FCD34D">10 Markets</text>
    <rect x="100" y="40" width="90" height="28" rx="14" fill="#4C1D95"/>
    <text x="145" y="59" text-anchor="middle" font-family="Inter, system-ui, sans-serif" font-size="11" font-weight="600" fill="#C4B5FD">8 Sectors</text>
  </g>
</svg>
